<?xml version="1.0" encoding="iso-8859-1"?>
<!-- Generator: Adobe Illustrator 19.0.0, SVG Export Plug-In . SVG Version: 6.00 Build 0)  -->
<svg version="1.1" id="Capa_1" xmlns="http://www.w3.org/2000/svg" xmlns:xlink="http://www.w3.org/1999/xlink" x="0px" y="0px"
	 viewBox="0 0 512 512" style="enable-background:new 0 0 512 512;" xml:space="preserve">
<path style="fill:#FFEA84;" d="M421,512H91V182h330V512z"/>
<path style="fill:#FFDC40;" d="M421,512H256V182h165V512z"/>
<g>
	<rect x="151" y="362" style="fill:#0C61C6;" width="210" height="30"/>
	<rect x="151" y="302" style="fill:#0C61C6;" width="210" height="30"/>
	<rect x="151" y="242" style="fill:#0C61C6;" width="210" height="30"/>
</g>
<path style="fill:#00C3FF;" d="M256,0c-58.449,0-106,47.551-106,106s47.551,106,106,106s106-47.551,106-106S314.449,0,256,0z
	 M330.506,91H300.62c-0.953-18.673-3.715-36.757-8.432-51.818C311.66,49.77,326.009,68.625,330.506,91z M241.421,121h29.158
	c-1.889,32.961-9.707,53.219-14.579,59.557C251.128,174.219,243.31,153.961,241.421,121z M241.421,91
	c1.889-32.961,9.707-53.219,14.579-59.557c4.872,6.338,12.69,26.595,14.579,59.557H241.421z M219.812,39.182
	c-4.718,15.062-7.479,33.145-8.432,51.818h-29.887C185.991,68.625,200.34,49.77,219.812,39.182z M181.494,121h29.887
	c0.953,18.673,3.715,36.757,8.432,51.818C200.34,162.23,185.991,143.375,181.494,121z M292.188,172.818
	c4.718-15.062,7.479-33.145,8.432-51.818h29.887C326.009,143.375,311.66,162.23,292.188,172.818z"/>
<path style="fill:#0C61C6;" d="M301,512h-90v-60h90V512z"/>
<g>
	<path style="fill:#0A4EAF;" d="M301,512h-45v-60h45V512z"/>
	<rect x="256" y="362" style="fill:#0A4EAF;" width="105" height="30"/>
	<rect x="256" y="302" style="fill:#0A4EAF;" width="105" height="30"/>
	<rect x="256" y="242" style="fill:#0A4EAF;" width="105" height="30"/>
</g>
<path style="fill:#00AAF0;" d="M256,0v31.443c4.872,6.338,12.69,26.595,14.579,59.557H256v30h14.579
	c-1.889,32.961-9.707,53.219-14.579,59.557V212c58.449,0,106-47.551,106-106S314.449,0,256,0z M292.188,172.818
	c4.718-15.062,7.479-33.145,8.432-51.818h29.887C326.009,143.375,311.66,162.23,292.188,172.818z M300.62,91
	c-0.953-18.673-3.715-36.757-8.432-51.818C311.66,49.77,326.009,68.625,330.506,91H300.62z"/>
<g>
</g>
<g>
</g>
<g>
</g>
<g>
</g>
<g>
</g>
<g>
</g>
<g>
</g>
<g>
</g>
<g>
</g>
<g>
</g>
<g>
</g>
<g>
</g>
<g>
</g>
<g>
</g>
<g>
</g>
</svg>
