<svg id="Capa_1" enable-background="new 0 0 501.803 501.803" height="512" viewBox="0 0 501.803 501.803" width="512" xmlns="http://www.w3.org/2000/svg"><g clip-rule="evenodd" fill-rule="evenodd"><path d="m198.551 160.402h104.701l52.25 90.5-52.25 90.499h-104.701l-52.25-90.499zm81.607-40h-58.513l29.256-50.674zm162.134 0h-116.147l-57.858-100.214c-1.699-3.047-4.219-5.687-7.464-7.552-9.535-5.48-21.708-2.192-27.187 7.344l-57.979 100.422h-116.147v.084c-3.371-.003-6.789.851-9.922 2.651-9.535 5.48-12.823 17.652-7.344 27.187l58.069 100.578-57.109 98.916c-2.326 3.268-3.694 7.266-3.694 11.583 0 11.046 8.954 20 20 20h116.147l57.858 100.214c1.699 3.047 4.219 5.688 7.464 7.552 9.535 5.48 21.708 2.192 27.187-7.344l57.979-100.422h116.147v-.084c3.371.003 6.789-.851 9.922-2.651 9.535-5.48 12.823-17.652 7.344-27.187l-58.068-100.578 57.109-98.916c2.326-3.268 3.694-7.266 3.694-11.583 0-11.046-8.955-20-20.001-20zm-63.796 90.672 29.256-50.673h-58.512zm-29.256 130.327h58.512l-29.256-50.673zm-225.933-50.673-29.256 50.673h58.512zm29.256-130.326h-58.512l29.256 50.673zm69.082 220.999h58.513l-29.256 50.674z" fill="#ff5a58"/><path d="m250.901 200.488c-37.32 0-69.901 20.277-87.334 50.413 17.433 30.136 50.014 50.413 87.334 50.413 37.319 0 69.9-20.277 87.334-50.413-17.433-30.136-50.014-50.413-87.334-50.413zm-20 50.413c0-11.046 8.955-20 20-20 11.046 0 20 8.955 20 20s-8.955 20-20 20-20-8.954-20-20z" fill="#fff3db"/><circle cx="250.901" cy="250.901" fill="#c68a65" r="20"/><path d="m123.307 211.074 29.256-50.672h-58.512z" fill="#b8ecbb"/><path d="m198.551 160.402-52.25 90.5 52.25 90.499h104.701l52.25-90.499-52.25-90.5zm-34.984 90.499c17.433-30.136 50.014-50.413 87.334-50.413 37.319 0 69.9 20.277 87.334 50.413-17.433 30.136-50.014 50.413-87.334 50.413-37.319 0-69.9-20.277-87.334-50.413z" fill="#b8ecbb"/><path d="m221.645 120.402h58.513l-29.257-50.674z" fill="#b8ecbb"/><path d="m349.24 160.402 29.256 50.672 29.255-50.672z" fill="#b8ecbb"/><path d="m378.496 290.728-29.256 50.673h58.511z" fill="#b8ecbb"/><path d="m280.158 381.401h-58.513l29.256 50.674z" fill="#b8ecbb"/><path d="m152.563 341.401-29.256-50.673-29.256 50.673z" fill="#b8ecbb"/></g><path d="m378.496 221.074c3.573 0 6.874-1.906 8.66-5l29.256-50.673c1.787-3.094 1.787-6.906 0-10-1.786-3.094-5.087-5-8.66-5h-58.512c-3.573 0-6.874 1.906-8.66 5-1.787 3.094-1.787 6.906 0 10l29.256 50.673c1.786 3.094 5.087 5 8.66 5zm11.935-50.673-11.936 20.673-11.936-20.673z"/><path d="m303.252 150.401h-104.701c-3.573 0-6.874 1.906-8.66 5l-52.25 90.5c-1.787 3.094-1.787 6.906 0 10l52.25 90.499c1.786 3.094 5.087 5 8.66 5h104.701c3.573 0 6.874-1.906 8.66-5l52.25-90.499c1.787-3.094 1.787-6.906 0-10l-52.25-90.5c-1.786-3.093-5.088-5-8.66-5zm-98.928 20h93.154l28.604 49.543c-20.225-18.629-47.023-29.457-75.181-29.457s-54.957 10.828-75.182 29.458zm122.136 80.5c-16.774 25.069-45.207 40.413-75.559 40.413s-58.784-15.344-75.559-40.413c16.774-25.066 45.208-40.413 75.559-40.413s58.785 15.347 75.559 40.413zm-28.982 80.499h-93.154l-28.604-49.543c20.225 18.629 47.023 29.457 75.181 29.457s54.956-10.828 75.18-29.456z"/><path d="m387.156 285.729c-1.786-3.094-5.087-5-8.66-5s-6.874 1.906-8.66 5l-29.257 50.671c-1.787 3.094-1.787 6.906 0 10 1.786 3.094 5.087 5 8.66 5h58.512c3.573 0 6.874-1.906 8.66-5 1.787-3.094 1.787-6.906 0-10zm-20.596 45.671 11.936-20.672 11.935 20.672z"/><path d="m339.216 371.401h-13.07c-3.573 0-6.874 1.906-8.66 5l-57.984 100.431c-2.579 4.478-6.845 4.971-8.593 4.971-.01 0-.02 0-.03 0-1.734-.006-6.052-.516-8.703-5.188l-57.858-100.214c-1.786-3.094-5.087-5-8.66-5h-116.148c-5.514 0-10-4.486-10-10.001 0-2.092.637-4.092 1.841-5.785.184-.257.354-.523.513-.798l57.109-98.916c1.787-3.094 1.787-6.906 0-10l-58.063-100.569c-2.558-4.44-.837-8.371.021-9.854 1.809-3.127 5.009-4.992 8.577-4.992h.009l116.147-.084c3.57-.003 6.868-1.908 8.653-5l6.487-11.236c2.762-4.783 1.123-10.898-3.66-13.66-4.781-2.76-10.898-1.122-13.66 3.66l-3.603 6.24-110.362.08c-.01 0-.018 0-.028 0-10.773 0-20.445 5.598-25.871 14.976-5.409 9.348-5.424 20.508-.036 29.862l55.182 95.578-54.008 93.545c-3.435 5.006-5.248 10.855-5.248 16.954 0 16.543 13.458 30.001 30 30.001h110.374l54.934 95.148c5.399 9.516 15.117 15.218 25.996 15.253h.102c10.824 0 20.508-5.598 25.912-14.979l55.092-95.422h7.297c5.523 0 10-4.478 10-10s-4.478-10.001-10.001-10.001z"/><path d="m259.561 64.728c-1.786-3.094-5.087-5-8.66-5s-6.874 1.906-8.66 5l-29.256 50.674c-1.787 3.094-1.787 6.906 0 10 1.786 3.094 5.087 5 8.66 5h58.513c3.573 0 6.874-1.906 8.66-5 1.787-3.094 1.787-6.906 0-10zm-20.596 45.673 11.936-20.674 11.936 20.674z"/><path d="m280.157 371.401h-58.513c-3.573 0-6.874 1.906-8.66 5-1.787 3.094-1.787 6.906 0 10l29.256 50.673c1.786 3.094 5.087 5 8.66 5s6.874-1.906 8.66-5l29.256-50.673c1.787-3.094 1.787-6.906 0-10-1.785-3.093-5.086-5-8.659-5zm-29.256 40.673-11.936-20.673h23.871z"/><path d="m85.391 346.4c1.786 3.094 5.087 5 8.66 5h58.512c3.573 0 6.874-1.906 8.66-5 1.787-3.094 1.787-6.906 0-10l-29.256-50.672c-1.786-3.094-5.087-5-8.66-5s-6.874 1.906-8.66 5l-29.256 50.672c-1.787 3.094-1.787 6.907 0 10zm37.916-35.671 11.935 20.672h-23.87z"/><path d="m123.307 221.074c3.573 0 6.874-1.906 8.66-5l29.256-50.673c1.787-3.094 1.787-6.906 0-10-1.786-3.094-5.087-5-8.66-5h-58.512c-3.573 0-6.874 1.906-8.66 5-1.787 3.094-1.787 6.906 0 10l29.256 50.673c1.786 3.094 5.087 5 8.66 5zm-11.935-50.673h23.871l-11.936 20.673z"/><path d="m413.036 250.901 54.008-93.545c3.435-5.006 5.248-10.856 5.248-16.955 0-16.542-13.458-30-30-30h-110.373l-54.934-95.148c-5.4-9.516-15.118-15.218-25.996-15.253-.035 0-.067 0-.102 0-10.824 0-20.508 5.598-25.912 14.979l-6.491 11.243c-2.762 4.783-1.123 10.898 3.66 13.66 4.782 2.76 10.898 1.123 13.66-3.66l6.497-11.252c2.579-4.478 6.845-4.971 8.593-4.971h.03c1.735.006 6.052.516 8.703 5.188l57.858 100.214c1.786 3.094 5.087 5 8.66 5h116.147c5.514 0 10 4.486 10 10 0 2.093-.637 4.093-1.841 5.786-.184.257-.354.523-.513.798l-57.109 98.916c-1.787 3.094-1.787 6.906 0 10l58.063 100.569c2.558 4.44.837 8.37-.021 9.854-1.809 3.127-5.009 4.992-8.635 4.992-.003 0-.006 0-.009 0l-13.077.084c-5.522.036-9.971 4.541-9.936 10.064.036 5.501 4.505 9.937 9.999 9.936h.066l13.003-.084h.028c10.774-.001 20.445-5.598 25.872-14.977 5.408-9.348 5.423-20.508.035-29.861z"/><path d="m220.901 250.901c0 16.542 13.458 30 30 30s30-13.458 30-30c0-16.543-13.458-30.001-30-30.001s-30 13.458-30 30.001zm30.001-10.001c5.514 0 10 4.486 10 10.001 0 5.514-4.486 10-10 10s-10-4.486-10-10c-.001-5.514 4.485-10.001 10-10.001z"/><path d="m199.603 78.834c1.584.924 3.318 1.364 5.029 1.364 3.44 0 6.789-1.777 8.647-4.963l.003-.006c2.783-4.771 1.17-10.891-3.601-13.674-4.771-2.782-10.896-1.169-13.678 3.602s-1.17 10.894 3.6 13.677z"/><path d="m384.219 371.401h-.007c-5.523 0-9.996 4.478-9.996 10s4.48 10 10.003 10 10-4.478 10-10-4.477-10-10-10z"/></svg>