<svg height="464pt" viewBox="0 0 464 464" width="464pt" xmlns="http://www.w3.org/2000/svg"><path d="m0 168h344v200h-344zm0 0" fill="#143441"/><path d="m88 368h176v64h-176zm0 0" fill="#5a6470"/><path d="m144 432h64v32h-64zm0 0" fill="#cfdfe8"/><path d="m168 84c0 46.390625-37.609375 84-84 84s-84-37.609375-84-84 37.609375-84 84-84 84 37.609375 84 84zm0 0" fill="#5a6470"/><path d="m336 84c0 46.390625-37.609375 84-84 84s-84-37.609375-84-84 37.609375-84 84-84 84 37.609375 84 84zm0 0" fill="#5a6470"/><path d="m344 216h32v104h-32zm0 0" fill="#5a6470"/><path d="m464 360-88-16v-152l88-16zm0 0" fill="#143441"/><g fill="#cfdfe8"><path d="m160 200h152v96h-152zm0 0"/><path d="m32 200h96v32h-96zm0 0"/><path d="m64 280c0 8.835938-7.164062 16-16 16s-16-7.164062-16-16 7.164062-16 16-16 16 7.164062 16 16zm0 0"/><path d="m128 280c0 8.835938-7.164062 16-16 16s-16-7.164062-16-16 7.164062-16 16-16 16 7.164062 16 16zm0 0"/><path d="m240 344h-208c-4.417969 0-8-3.582031-8-8s3.582031-8 8-8h208c4.417969 0 8 3.582031 8 8s-3.582031 8-8 8zm0 0"/><path d="m288 344h-16c-4.417969 0-8-3.582031-8-8s3.582031-8 8-8h16c4.417969 0 8 3.582031 8 8s-3.582031 8-8 8zm0 0"/><path d="m184 408h-96c-4.417969 0-8-3.582031-8-8s3.582031-8 8-8h96c4.417969 0 8 3.582031 8 8s-3.582031 8-8 8zm0 0"/><path d="m232 408h-16c-4.417969 0-8-3.582031-8-8s3.582031-8 8-8h16c4.417969 0 8 3.582031 8 8s-3.582031 8-8 8zm0 0"/></g><path d="m264 44c0 6.628906-5.371094 12-12 12s-12-5.371094-12-12 5.371094-12 12-12 12 5.371094 12 12zm0 0" fill="#aabece"/><path d="m304 84c0 6.628906-5.371094 12-12 12s-12-5.371094-12-12 5.371094-12 12-12 12 5.371094 12 12zm0 0" fill="#aabece"/><path d="m264 124c0 6.628906-5.371094 12-12 12s-12-5.371094-12-12 5.371094-12 12-12 12 5.371094 12 12zm0 0" fill="#aabece"/><path d="m224 84c0 6.628906-5.371094 12-12 12s-12-5.371094-12-12 5.371094-12 12-12 12 5.371094 12 12zm0 0" fill="#aabece"/><path d="m96 44c0 6.628906-5.371094 12-12 12s-12-5.371094-12-12 5.371094-12 12-12 12 5.371094 12 12zm0 0" fill="#aabece"/><path d="m136 84c0 6.628906-5.371094 12-12 12s-12-5.371094-12-12 5.371094-12 12-12 12 5.371094 12 12zm0 0" fill="#aabece"/><path d="m96 124c0 6.628906-5.371094 12-12 12s-12-5.371094-12-12 5.371094-12 12-12 12 5.371094 12 12zm0 0" fill="#aabece"/><path d="m56 84c0 6.628906-5.371094 12-12 12s-12-5.371094-12-12 5.371094-12 12-12 12 5.371094 12 12zm0 0" fill="#aabece"/><path d="m192 248c-4.417969 0-8-3.582031-8-8v-8c0-4.417969 3.582031-8 8-8s8 3.582031 8 8v8c0 4.417969-3.582031 8-8 8zm0 0" fill="#5a6470"/><path d="m224 248c-4.417969 0-8-3.582031-8-8v-8c0-4.417969 3.582031-8 8-8s8 3.582031 8 8v8c0 4.417969-3.582031 8-8 8zm0 0" fill="#5a6470"/><path d="m256 248c-4.417969 0-8-3.582031-8-8v-8c0-4.417969 3.582031-8 8-8s8 3.582031 8 8v8c0 4.417969-3.582031 8-8 8zm0 0" fill="#5a6470"/></svg>